# xmcd
#
# Track frame offsets: 
#        150
#        13975
#        32698
#        46665
#        68121
#        83381
#        102993
#        116028
#        137463
#        159603
#        178294
#        192924
#        205545
#        224196
#        242765
#        268470
#        282970
#        302323
#
# Disc length: 4243 seconds
#
# Revision: 0
# Processed by: cddbd v1.4PL0 Copyright (c) Steve Scherf et al.
# Submitted via: ExactAudioCopy v0.95a3
#
DISCID=03109112
DTITLE=Малинин Александр - Коллекция Лучших Хитов
DYEAR=2003
DGENRE=Acoustic
TTITLE0=Моё последнее танго
TTITLE1=Розы алые
TTITLE2=Черные глаза
TTITLE3=Берега
TTITLE4=Не уходи
TTITLE5=Когда ты сбрасываешь платье
TTITLE6=Ты ждешь, Лизавета
TTITLE7=Напрасные слова
TTITLE8=Битва титана
TTITLE9=Я уеду (гусарская баллада)
TTITLE10=Помни и не забывай
TTITLE11=Лада
TTITLE12=Тайна
TTITLE13=Забава
TTITLE14=Любовь и разлука
TTITLE15=Ночи окаянные
TTITLE16=Сирена
TTITLE17=Неловкий разговор
EXTD=
EXTT0=
EXTT1=
EXTT2=
EXTT3=
EXTT4=
EXTT5=
EXTT6=
EXTT7=
EXTT8=
EXTT9=
EXTT10=
EXTT11=
EXTT12=
EXTT13=
EXTT14=
EXTT15=
EXTT16=
EXTT17=
PLAYORDER=
